<mxfile host="app.diagrams.net" agent="Mozilla/5.0 (X11; Linux x86_64) AppleWebKit/537.36 (KHTML, like Gecko) Chrome/126.0.0.0 Safari/537.36" version="24.7.17">
  <diagram name="PÃ¡gina-1" id="AM0U1sOp5meWZP6QmIba">
    <mxGraphModel dx="794" dy="724" grid="1" gridSize="10" guides="1" tooltips="1" connect="1" arrows="1" fold="1" page="1" pageScale="1" pageWidth="827" pageHeight="1169" math="0" shadow="0">
      <root>
        <mxCell id="0" />
        <mxCell id="1" parent="0" />
        <mxCell id="VEkqchbDXe9UcqQvvxhx-1" value="PROOVEDOR" style="whiteSpace=wrap;html=1;" vertex="1" parent="1">
          <mxGeometry x="180" y="150" width="120" height="60" as="geometry" />
        </mxCell>
        <mxCell id="VEkqchbDXe9UcqQvvxhx-2" value="CLIENTE" style="whiteSpace=wrap;html=1;" vertex="1" parent="1">
          <mxGeometry x="470" y="140" width="120" height="60" as="geometry" />
        </mxCell>
        <mxCell id="VEkqchbDXe9UcqQvvxhx-3" value="PRODUCTO" style="whiteSpace=wrap;html=1;" vertex="1" parent="1">
          <mxGeometry x="160" y="350" width="120" height="60" as="geometry" />
        </mxCell>
        <mxCell id="VEkqchbDXe9UcqQvvxhx-4" value="VENTAS" style="whiteSpace=wrap;html=1;" vertex="1" parent="1">
          <mxGeometry x="560" y="330" width="120" height="60" as="geometry" />
        </mxCell>
        <mxCell id="VEkqchbDXe9UcqQvvxhx-5" value="cod_prov&amp;nbsp; &amp;nbsp; nombre&amp;nbsp; &amp;nbsp; direccion&amp;nbsp; &amp;nbsp;telefono&amp;nbsp; &amp;nbsp;pag_web" style="text;html=1;align=center;verticalAlign=middle;resizable=0;points=[];autosize=1;strokeColor=none;fillColor=none;" vertex="1" parent="1">
          <mxGeometry x="55" y="110" width="300" height="30" as="geometry" />
        </mxCell>
        <mxCell id="VEkqchbDXe9UcqQvvxhx-6" value="id_prod&amp;nbsp;&lt;div&gt;&amp;nbsp;&amp;nbsp;&amp;nbsp;&lt;div&gt;&amp;nbsp;nombre&amp;nbsp;&lt;/div&gt;&lt;div&gt;&lt;br&gt;&lt;div&gt;&amp;nbsp;&amp;nbsp; precio&amp;nbsp;&amp;nbsp;&lt;/div&gt;&lt;div&gt;&amp;nbsp;&lt;/div&gt;&lt;div&gt;&amp;nbsp;stock&amp;nbsp;&lt;/div&gt;&lt;div&gt;&lt;br&gt;&lt;/div&gt;&lt;div&gt;&amp;nbsp;&amp;nbsp;nom_prov&lt;/div&gt;&lt;/div&gt;&lt;/div&gt;" style="text;html=1;align=center;verticalAlign=middle;resizable=0;points=[];autosize=1;strokeColor=none;fillColor=none;" vertex="1" parent="1">
          <mxGeometry x="40" y="310" width="80" height="140" as="geometry" />
        </mxCell>
        <mxCell id="VEkqchbDXe9UcqQvvxhx-7" value="categoria" style="whiteSpace=wrap;html=1;" vertex="1" parent="1">
          <mxGeometry x="145" y="585" width="120" height="60" as="geometry" />
        </mxCell>
        <mxCell id="VEkqchbDXe9UcqQvvxhx-8" value="id_cat&amp;nbsp; &amp;nbsp; nombre&amp;nbsp; &amp;nbsp;descripcion" style="text;html=1;align=center;verticalAlign=middle;resizable=0;points=[];autosize=1;strokeColor=none;fillColor=none;" vertex="1" parent="1">
          <mxGeometry x="120" y="660" width="180" height="30" as="geometry" />
        </mxCell>
        <mxCell id="VEkqchbDXe9UcqQvvxhx-10" value="id_venta&amp;nbsp; &amp;nbsp; fecha&amp;nbsp; &amp;nbsp; cliente&amp;nbsp; &amp;nbsp;descuento&amp;nbsp; &amp;nbsp; &amp;nbsp;monto_final" style="text;html=1;align=center;verticalAlign=middle;resizable=0;points=[];autosize=1;strokeColor=none;fillColor=none;" vertex="1" parent="1">
          <mxGeometry x="500" y="410" width="300" height="30" as="geometry" />
        </mxCell>
        <mxCell id="VEkqchbDXe9UcqQvvxhx-11" value="" style="endArrow=none;html=1;rounded=0;exitX=1;exitY=0.5;exitDx=0;exitDy=0;entryX=0;entryY=0.5;entryDx=0;entryDy=0;" edge="1" parent="1" source="VEkqchbDXe9UcqQvvxhx-12" target="VEkqchbDXe9UcqQvvxhx-4">
          <mxGeometry width="50" height="50" relative="1" as="geometry">
            <mxPoint x="380" y="400" as="sourcePoint" />
            <mxPoint x="430" y="350" as="targetPoint" />
          </mxGeometry>
        </mxCell>
        <mxCell id="VEkqchbDXe9UcqQvvxhx-13" value="" style="endArrow=none;html=1;rounded=0;exitX=1;exitY=0.5;exitDx=0;exitDy=0;entryX=0;entryY=0.5;entryDx=0;entryDy=0;" edge="1" parent="1" source="VEkqchbDXe9UcqQvvxhx-3" target="VEkqchbDXe9UcqQvvxhx-12">
          <mxGeometry width="50" height="50" relative="1" as="geometry">
            <mxPoint x="280" y="380" as="sourcePoint" />
            <mxPoint x="560" y="360" as="targetPoint" />
          </mxGeometry>
        </mxCell>
        <mxCell id="VEkqchbDXe9UcqQvvxhx-12" value="" style="rhombus;whiteSpace=wrap;html=1;" vertex="1" parent="1">
          <mxGeometry x="400" y="350" width="40" height="40" as="geometry" />
        </mxCell>
        <mxCell id="VEkqchbDXe9UcqQvvxhx-14" value="" style="endArrow=none;html=1;rounded=0;entryX=0.5;entryY=1;entryDx=0;entryDy=0;" edge="1" parent="1" source="VEkqchbDXe9UcqQvvxhx-15" target="VEkqchbDXe9UcqQvvxhx-3">
          <mxGeometry width="50" height="50" relative="1" as="geometry">
            <mxPoint x="220" y="580" as="sourcePoint" />
            <mxPoint x="430" y="430" as="targetPoint" />
          </mxGeometry>
        </mxCell>
        <mxCell id="VEkqchbDXe9UcqQvvxhx-16" value="" style="endArrow=none;html=1;rounded=0;entryX=0.5;entryY=1;entryDx=0;entryDy=0;" edge="1" parent="1" target="VEkqchbDXe9UcqQvvxhx-15">
          <mxGeometry width="50" height="50" relative="1" as="geometry">
            <mxPoint x="220" y="580" as="sourcePoint" />
            <mxPoint x="220" y="410" as="targetPoint" />
          </mxGeometry>
        </mxCell>
        <mxCell id="VEkqchbDXe9UcqQvvxhx-15" value="pertenece" style="rhombus;whiteSpace=wrap;html=1;" vertex="1" parent="1">
          <mxGeometry x="200" y="480" width="40" height="40" as="geometry" />
        </mxCell>
        <mxCell id="VEkqchbDXe9UcqQvvxhx-17" value="(1,1)" style="text;html=1;align=center;verticalAlign=middle;resizable=0;points=[];autosize=1;strokeColor=none;fillColor=none;" vertex="1" parent="1">
          <mxGeometry x="215" y="555" width="50" height="30" as="geometry" />
        </mxCell>
        <mxCell id="VEkqchbDXe9UcqQvvxhx-18" value="(1,n)" style="text;html=1;align=center;verticalAlign=middle;resizable=0;points=[];autosize=1;strokeColor=none;fillColor=none;" vertex="1" parent="1">
          <mxGeometry x="215" y="410" width="50" height="30" as="geometry" />
        </mxCell>
        <mxCell id="VEkqchbDXe9UcqQvvxhx-19" value="precio venta" style="text;html=1;align=center;verticalAlign=middle;resizable=0;points=[];autosize=1;strokeColor=none;fillColor=none;" vertex="1" parent="1">
          <mxGeometry x="365" y="318" width="90" height="30" as="geometry" />
        </mxCell>
        <mxCell id="VEkqchbDXe9UcqQvvxhx-20" value="cod_cliente&amp;nbsp; &amp;nbsp; nombre&amp;nbsp; &amp;nbsp;direccion" style="text;html=1;align=center;verticalAlign=middle;resizable=0;points=[];autosize=1;strokeColor=none;fillColor=none;" vertex="1" parent="1">
          <mxGeometry x="420" y="100" width="200" height="30" as="geometry" />
        </mxCell>
        <mxCell id="VEkqchbDXe9UcqQvvxhx-21" value="" style="endArrow=none;html=1;rounded=0;entryX=0;entryY=1;entryDx=0;entryDy=0;exitX=1;exitY=0;exitDx=0;exitDy=0;" edge="1" parent="1" source="VEkqchbDXe9UcqQvvxhx-22" target="VEkqchbDXe9UcqQvvxhx-2">
          <mxGeometry width="50" height="50" relative="1" as="geometry">
            <mxPoint x="380" y="480" as="sourcePoint" />
            <mxPoint x="430" y="430" as="targetPoint" />
          </mxGeometry>
        </mxCell>
        <mxCell id="VEkqchbDXe9UcqQvvxhx-23" value="" style="endArrow=none;html=1;rounded=0;entryX=0;entryY=1;entryDx=0;entryDy=0;exitX=1;exitY=0;exitDx=0;exitDy=0;" edge="1" parent="1" source="VEkqchbDXe9UcqQvvxhx-3" target="VEkqchbDXe9UcqQvvxhx-22">
          <mxGeometry width="50" height="50" relative="1" as="geometry">
            <mxPoint x="280" y="350" as="sourcePoint" />
            <mxPoint x="470" y="200" as="targetPoint" />
          </mxGeometry>
        </mxCell>
        <mxCell id="VEkqchbDXe9UcqQvvxhx-22" value="compra" style="rhombus;whiteSpace=wrap;html=1;" vertex="1" parent="1">
          <mxGeometry x="365" y="240" width="50" height="50" as="geometry" />
        </mxCell>
        <mxCell id="VEkqchbDXe9UcqQvvxhx-24" value="" style="endArrow=none;html=1;rounded=0;entryX=0.5;entryY=1;entryDx=0;entryDy=0;" edge="1" parent="1" source="VEkqchbDXe9UcqQvvxhx-25" target="VEkqchbDXe9UcqQvvxhx-1">
          <mxGeometry width="50" height="50" relative="1" as="geometry">
            <mxPoint x="380" y="480" as="sourcePoint" />
            <mxPoint x="430" y="430" as="targetPoint" />
          </mxGeometry>
        </mxCell>
        <mxCell id="VEkqchbDXe9UcqQvvxhx-27" value="" style="endArrow=none;html=1;rounded=0;entryX=0.5;entryY=1;entryDx=0;entryDy=0;" edge="1" parent="1" source="VEkqchbDXe9UcqQvvxhx-3" target="VEkqchbDXe9UcqQvvxhx-25">
          <mxGeometry width="50" height="50" relative="1" as="geometry">
            <mxPoint x="224" y="350" as="sourcePoint" />
            <mxPoint x="240" y="210" as="targetPoint" />
          </mxGeometry>
        </mxCell>
        <mxCell id="VEkqchbDXe9UcqQvvxhx-25" value="vende" style="rhombus;whiteSpace=wrap;html=1;" vertex="1" parent="1">
          <mxGeometry x="215" y="250" width="40" height="40" as="geometry" />
        </mxCell>
      </root>
    </mxGraphModel>
  </diagram>
</mxfile>
